HIERARCHY
ROOT Hips
{
	OFFSET 0.00000 0.00000 0.00000
	CHANNELS 6 Xposition Yposition Zposition Zrotation Yrotation Xrotation 
	JOINT LHipJoint
	{
		OFFSET 0 0 0
		CHANNELS 3 Zrotation Yrotation Xrotation
		JOINT LeftUpLeg
		{
			OFFSET 1.58895 -1.83665 0.71753
			CHANNELS 3 Zrotation Yrotation Xrotation
			JOINT LeftLeg
			{
				OFFSET 2.50528 -6.88321 0.00000
				CHANNELS 3 Zrotation Yrotation Xrotation
				JOINT LeftFoot
				{
					OFFSET 2.63244 -7.23257 0.00000
					CHANNELS 3 Zrotation Yrotation Xrotation
					JOINT LeftToeBase
					{
						OFFSET 0.23691 -0.65090 1.72750
						CHANNELS 3 Zrotation Yrotation Xrotation
						End Site
						{
							OFFSET 0.00000 -0.00000 0.92561
						}
					}
				}
			}
		}
	}
	JOINT RHipJoint
	{
		OFFSET 0 0 0
		CHANNELS 3 Zrotation Yrotation Xrotation
		JOINT RightUpLeg
		{
			OFFSET -1.51435 -1.83665 0.71753
			CHANNELS 3 Zrotation Yrotation Xrotation
			JOINT RightLeg
			{
				OFFSET -2.54551 -6.99375 0.00000
				CHANNELS 3 Zrotation Yrotation Xrotation
				JOINT RightFoot
				{
					OFFSET -2.66027 -7.30903 0.00000
					CHANNELS 3 Zrotation Yrotation Xrotation
					JOINT RightToeBase
					{
						OFFSET -0.22981 -0.63138 2.03959
						CHANNELS 3 Zrotation Yrotation Xrotation
						End Site
						{
							OFFSET -0.00000 -0.00000 1.07060
						}
					}
				}
			}
		}
	}
	JOINT LowerBack
	{
		OFFSET 0 0 0
		CHANNELS 3 Zrotation Yrotation Xrotation
		JOINT Spine
		{
			OFFSET -0.02651 1.86275 -0.11152
			CHANNELS 3 Zrotation Yrotation Xrotation
			JOINT Spine1
			{
				OFFSET 0.01019 1.86224 0.04087
				CHANNELS 3 Zrotation Yrotation Xrotation
				JOINT Neck
				{
					OFFSET 0 0 0
					CHANNELS 3 Zrotation Yrotation Xrotation
					JOINT Neck1
					{
						OFFSET -0.01926 1.80512 0.08867
						CHANNELS 3 Zrotation Yrotation Xrotation
						JOINT Head
						{
							OFFSET 0.05516 1.76451 -0.38475
							CHANNELS 3 Zrotation Yrotation Xrotation
							End Site
							{
								OFFSET 0.01592 1.82587 -0.14001
							}
						}
					}
				}
				JOINT LeftShoulder
				{
					OFFSET 0 0 0
					CHANNELS 3 Zrotation Yrotation Xrotation
					JOINT LeftArm
					{
						OFFSET 3.47116 1.51376 0.14491
						CHANNELS 3 Zrotation Yrotation Xrotation
						JOINT LeftForeArm
						{
							OFFSET 4.78095 -0.00000 0.00000
							CHANNELS 3 Zrotation Yrotation Xrotation
							JOINT LeftHand
							{
								OFFSET 3.58615 -0.00000 -0.00000
								CHANNELS 3 Zrotation Yrotation Xrotation
								JOINT LeftFingerBase
								{
									OFFSET 0 0 0
									CHANNELS 3 Zrotation Yrotation Xrotation
									JOINT LeftHandIndex1
									{
										OFFSET 0.65981 -0.00000 0.00000
										CHANNELS 3 Zrotation Yrotation Xrotation
										End Site
										{
											OFFSET 0.53196 -0.00000 0.00000
										}
									}
								}
								JOINT LThumb
								{
									OFFSET 0 0 0
									CHANNELS 3 Zrotation Yrotation Xrotation
									End Site
									{
										OFFSET 0.54008 -0.00000 0.54008
									}
								}
							}
						}
					}
				}
				JOINT RightShoulder
				{
					OFFSET 0 0 0
					CHANNELS 3 Zrotation Yrotation Xrotation
					JOINT RightArm
					{
						OFFSET -3.31725 1.61216 0.35156
						CHANNELS 3 Zrotation Yrotation Xrotation
						JOINT RightForeArm
						{
							OFFSET -4.48913 -0.00000 0.00000
							CHANNELS 3 Zrotation Yrotation Xrotation
							JOINT RightHand
							{
								OFFSET -3.70510 -0.00000 0.00000
								CHANNELS 3 Zrotation Yrotation Xrotation
								JOINT RightFingerBase
								{
									OFFSET 0 0 0
									CHANNELS 3 Zrotation Yrotation Xrotation
									JOINT RightHandIndex1
									{
										OFFSET -0.44914 -0.00000 0.00000
										CHANNELS 3 Zrotation Yrotation Xrotation
										End Site
										{
											OFFSET -0.36211 -0.00000 0.00000
										}
									}
								}
								JOINT RThumb
								{
									OFFSET 0 0 0
									CHANNELS 3 Zrotation Yrotation Xrotation
									End Site
									{
										OFFSET -0.36763 -0.00000 0.36763
									}
								}
							}
						}
					}
				}
			}
		}
	}
}
MOTION
Frames: 6
Frame Time: .0083333
-0.7275 18.7193 5.8159 0 0 0 0 0 0 -21 0 0 0 0 0 0 0 0 0 0 0 0 0 0 21 0 0 0 0 0 0 0 0 0 0 0 0 0 0 0 0 0 0 0 0 0 0 -16 0 0 21 0 0 11 0 0 0 -8 0 0 0 0 0 0 0 0 0 0 0 0 0 0 0 0 0 0 0 0 8 0 0 0 0 0 0 0 0 0 0 0 0 0 0 0 0 0
-0.7275 18.7193 5.8159 -0.9035 -1.9199 3.2684 0.0000 0.0000 0.0000 -13.4477 -9.3858 -2.4956 1.1251 6.7374 18.9396 1.5215 6.8147 -26.6349 8.3523 -16.3724 -53.8220 0.0000 0.0000 0.0000 14.8064 0.5884 5.5058 0.0000 -0.0000 0.0000 -0.8963 -3.7484 -19.6169 -0.0078 0.5699 -1.5660 -2.1715 -0.2070 0.2288 0.7125 -0.2935 -1.9311 1.9543 -0.1021 -2.0943 -0.7576 -1.0626 -14.5441 3.5396 -2.2395 23.8770 1.0832 -0.6963 10.0497 0.0000 0.0000 0.0000 -92.8343 10.8868 25.6294 20.2895 -30.9896 -5.6797 -0.0000 -0.0000 6.5889 4.6226 -25.4752 -1.9918 -7.1250 0.0000 -0.0000 -15.1432 5.1659 14.2357 0.0000 0.0000 0.0000 89.8730 -14.1786 26.3060 -21.5480 32.4624 -6.3415 0.0000 0.0000 21.1707 -8.8118 -29.6207 4.3814 7.1250 -0.0000 -0.0000 24.7849 -58.1276 -8.2917
-0.7294 18.7203 5.8218 -0.9028 -1.8750 3.2650 0.0000 0.0000 0.0000 -13.4293 -9.2654 -2.5291 1.1255 6.7388 18.9437 1.5061 6.7684 -26.4942 8.3742 -16.3877 -53.8994 0.0000 0.0000 0.0000 14.8101 0.5341 5.5251 0.0000 -0.0000 0.0000 -0.9005 -3.7134 -19.6369 -0.0067 0.5271 -1.4484 -2.1754 -0.2267 0.1780 0.7226 -0.3185 -1.9128 1.9671 -0.1152 -2.0457 -0.8110 -1.0620 -14.6196 3.5555 -2.2308 23.9230 1.0991 -0.6940 10.0812 -0.0000 -0.0000 0.0000 -92.8500 10.7833 25.6072 20.2330 -30.9221 -5.6506 -0.0000 -0.0000 6.6981 4.5939 -25.5388 -1.9840 -7.1250 0.0000 -0.0000 -15.1602 5.1069 14.2704 -0.0000 -0.0000 0.0000 89.8465 -14.1145 26.3370 -21.5372 32.4500 -6.3357 0.0000 0.0000 21.1663 -8.8358 -29.5555 4.3847 7.1250 -0.0000 -0.0000 24.7105 -58.0742 -8.2325
-0.7310 18.7201 5.8269 -0.8873 -1.8348 3.2738 0.0000 0.0000 0.0000 -13.4441 -9.2951 -2.5067 1.1222 6.7290 18.9150 1.4973 6.7948 -26.4470 8.3604 -16.3780 -53.8505 0.0000 0.0000 0.0000 14.7969 0.4878 5.5304 0.0000 -0.0000 0.0000 -0.9019 -3.6969 -19.6413 -0.0061 0.5034 -1.3831 -2.1810 -0.2399 0.1397 0.7083 -0.3357 -1.9253 1.9557 -0.1238 -2.0362 -0.8091 -1.0628 -14.6061 3.5583 -2.2333 23.9259 1.0995 -0.6948 10.0798 -0.0000 0.0000 0.0000 -92.8364 10.7373 25.6057 20.1799 -30.8585 -5.6233 -0.0000 -0.0000 6.7264 4.5785 -25.5287 -1.9766 -7.1250 0.0000 -0.0000 -15.1694 5.1180 14.2764 -0.0000 0.0000 0.0000 89.8690 -14.1118 26.3377 -21.5416 32.4551 -6.3381 0.0000 0.0000 21.2030 -8.8134 -29.4642 4.3612 7.1250 -0.0000 -0.0000 24.6632 -57.9870 -8.1629
-0.7320 18.7195 5.8310 -0.8561 -1.8014 3.2957 0.0000 0.0000 0.0000 -13.4938 -9.4573 -2.4550 1.1215 6.7272 18.9095 1.5037 6.8760 -26.5447 8.3435 -16.3662 -53.7907 0.0000 0.0000 0.0000 14.7665 0.4528 5.5179 0.0000 0.0000 -0.0000 -0.9005 -3.7072 -19.6340 -0.0078 0.5707 -1.5682 -2.1836 -0.2445 0.1097 0.6766 -0.3420 -1.9655 1.9247 -0.1266 -2.0604 -0.7735 -1.0668 -14.5048 3.5311 -2.2393 23.8878 1.0831 -0.6990 10.0461 0.0000 -0.0000 0.0000 -92.7996 10.7863 25.7016 20.2830 -30.9818 -5.6763 -0.0000 -0.0000 6.8193 4.4153 -24.9521 -1.8657 -7.1250 0.0000 -0.0000 -15.2683 5.6879 14.2056 0.0000 -0.0000 0.0000 89.9139 -14.1508 26.3350 -21.5630 32.4796 -6.3496 0.0000 0.0000 21.2140 -8.8662 -29.4849 4.3905 7.1250 -0.0000 -0.0000 24.6259 -58.0171 -8.1676
-0.7327 18.7201 5.8347 -0.8316 -1.7774 3.3270 0.0000 0.0000 0.0000 -13.5259 -9.5316 -2.4453 1.1211 6.7259 18.9057 1.5079 6.9166 -26.6007 8.3556 -16.3747 -53.8337 0.0000 0.0000 0.0000 14.7396 0.4311 5.4947 0.0000 -0.0000 0.0000 -0.9032 -3.6887 -19.6493 -0.0080 0.5780 -1.5883 -2.1858 -0.2485 0.0593 0.6548 -0.3470 -2.0077 1.9034 -0.1287 -2.0754 -0.7435 -1.0724 -14.3941 3.4917 -2.2433 23.8587 1.0637 -0.7043 10.0136 0.0000 -0.0000 0.0000 -92.7872 10.8557 25.8207 20.4883 -31.2262 -5.7824 -0.0000 -0.0000 7.0848 4.1059 -23.9048 -1.6662 -7.1250 0.0000 -0.0000 -15.4631 6.7224 14.0825 0.0000 -0.0000 0.0000 89.9372 -14.2039 26.3718 -21.6023 32.5246 -6.3707 0.0000 0.0000 21.0954 -9.0200 -29.6046 4.4840 7.1250 -0.0000 -0.0000 24.5627 -58.1582 -8.2296
